<svg xmlns="http://www.w3.org/2000/svg" viewBox="0 0 560 220" fill="none">
  <title>Allo Maison — Ribbon Badge</title>

  <!-- Outer circle -->
  <circle cx="100" cy="110" r="86" fill="#1F4E5F"/>
  <circle cx="100" cy="110" r="79" stroke="#D4A24C" stroke-width="1.5" fill="none" stroke-opacity="0.5"/>

  <!-- Inside circle: house + check -->
  <g transform="translate(100 106)">
    <path d="M -40 -8 L 0 -44 L 40 -8 L 40 32 L -40 32 Z" fill="#F5EFE6"/>
    <rect x="-8" y="6" width="16" height="26" fill="#C24D2C"/>
    <rect x="-28" y="-4" width="14" height="14" fill="#1F4E5F"/>
    <rect x="14" y="-4" width="14" height="14" fill="#1F4E5F"/>
    <g transform="translate(32 36)">
      <circle r="17" fill="#F5EFE6" stroke="#1F4E5F" stroke-width="2"/>
      <path d="M -7 0 L -2 5 L 8 -6" stroke="#7FA99B" stroke-width="3.5" stroke-linecap="round" stroke-linejoin="round" fill="none"/>
    </g>
  </g>

  <!-- Ribbon banner -->
  <path d="M 220 54 L 528 54 L 540 80 L 528 106 L 220 106 L 232 80 Z" fill="#C24D2C"/>
  <path d="M 220 54 L 232 80 L 220 106 L 210 106 L 220 80 L 210 54 Z" fill="#A8401F"/>
  <text x="375" y="88" text-anchor="middle" font-family="Inter, system-ui, sans-serif" font-weight="800" font-size="26" letter-spacing="2" fill="#F5EFE6">ALLO MAISON</text>

  <!-- Subtitle -->
  <text x="375" y="138" text-anchor="middle" font-family="Inter, system-ui, sans-serif" font-weight="700" font-size="15" letter-spacing="0.5" fill="#1F4E5F">Artisans vérifiés et certifiés</text>
  <text x="375" y="158" text-anchor="middle" font-family="Inter, system-ui, sans-serif" font-weight="600" font-size="10" letter-spacing="2.4" fill="#6B6459">DEPUIS 2017 · 6 VILLES AU MAROC</text>

  <!-- Stars -->
  <g transform="translate(375 182)" fill="#D4A24C">
    <path d="M -32 -6 L -30.2 -1.8 L -26 -1 L -29.4 2 L -28.6 6.2 L -32 4.2 L -35.4 6.2 L -34.6 2 L -38 -1 L -33.8 -1.8 Z"/>
    <path d="M -16 -6 L -14.2 -1.8 L -10 -1 L -13.4 2 L -12.6 6.2 L -16 4.2 L -19.4 6.2 L -18.6 2 L -22 -1 L -17.8 -1.8 Z"/>
    <path d="M 0 -6 L 1.8 -1.8 L 6 -1 L 2.6 2 L 3.4 6.2 L 0 4.2 L -3.4 6.2 L -2.6 2 L -6 -1 L -1.8 -1.8 Z"/>
    <path d="M 16 -6 L 17.8 -1.8 L 22 -1 L 18.6 2 L 19.4 6.2 L 16 4.2 L 12.6 6.2 L 13.4 2 L 10 -1 L 14.2 -1.8 Z"/>
    <path d="M 32 -6 L 33.8 -1.8 L 38 -1 L 34.6 2 L 35.4 6.2 L 32 4.2 L 28.6 6.2 L 29.4 2 L 26 -1 L 30.2 -1.8 Z"/>
  </g>
</svg>
