<svg xmlns="http://www.w3.org/2000/svg" viewBox="0 0 320 400" fill="none">
  <title>Allo Maison — Shield Trust Badge (dark mode)</title>

  <path d="M 60 40
           L 260 40
           Q 280 40 280 60
           L 280 180
           Q 280 270 160 340
           Q 40 270 40 180
           L 40 60
           Q 40 40 60 40 Z"
        fill="#1F4E5F"/>
  <path d="M 68 50
           L 252 50
           Q 270 50 270 68
           L 270 180
           Q 270 258 160 322
           Q 50 258 50 180
           L 50 68
           Q 50 50 68 50 Z"
        stroke="#D4A24C" stroke-width="1.5" fill="none" stroke-opacity="0.6"/>

  <path d="M 160 100 L 230 160 L 90 160 Z" fill="#F5EFE6"/>
  <rect x="100" y="160" width="120" height="90" fill="#F5EFE6"/>
  <path d="M 145 250 L 145 200 Q 145 185 160 185 Q 175 185 175 200 L 175 250 Z" fill="#C24D2C"/>
  <rect x="115" y="175" width="20" height="20" rx="1" fill="#1F4E5F"/>
  <rect x="185" y="175" width="20" height="20" rx="1" fill="#1F4E5F"/>

  <g transform="translate(240 90)">
    <circle r="26" fill="#F5EFE6"/>
    <circle r="22" fill="#7FA99B"/>
    <path d="M -10 0 L -3 8 L 11 -8" stroke="#F5EFE6" stroke-width="4.5" stroke-linecap="round" stroke-linejoin="round" fill="none"/>
  </g>

  <text x="160" y="378" text-anchor="middle" font-family="Inter, system-ui, sans-serif" font-weight="800" font-size="34" letter-spacing="-1" fill="#F5EFE6">ALLO MAISON</text>
  <text x="160" y="396" text-anchor="middle" font-family="Inter, system-ui, sans-serif" font-weight="600" font-size="9" letter-spacing="2.6" fill="#D4A24C">DEPUIS 2017 · VÉRIFIÉ ET CERTIFIÉ</text>
</svg>
