<svg xmlns="http://www.w3.org/2000/svg" viewBox="0 0 180 180">
  <rect width="180" height="180" rx="36" fill="#F5EFE6"/>
  <path d="M 44 32 L 136 32 Q 148 32 148 44 L 148 94 Q 148 128 90 158 Q 32 128 32 94 L 32 44 Q 32 32 44 32 Z" fill="#1F4E5F"/>
  <path d="M 90 58 L 124 88 L 56 88 Z" fill="#F5EFE6"/>
  <rect x="60" y="88" width="60" height="42" fill="#F5EFE6"/>
  <path d="M 82 130 L 82 104 Q 82 96 90 96 Q 98 96 98 104 L 98 130 Z" fill="#C24D2C"/>
  <rect x="67" y="95" width="9" height="9" rx="0.5" fill="#1F4E5F"/>
  <rect x="104" y="95" width="9" height="9" rx="0.5" fill="#1F4E5F"/>
  <g transform="translate(132 58)">
    <circle r="14" fill="#F5EFE6"/>
    <circle r="11" fill="#7FA99B"/>
    <path d="M -5 0 L -1.5 4 L 5.5 -4" stroke="#F5EFE6" stroke-width="2.4" stroke-linecap="round" stroke-linejoin="round" fill="none"/>
  </g>
</svg>
